<?xml version="1.0"?>
<svg xmlns:rdf="http://www.w3.org/1999/02/22-rdf-syntax-ns#" xmlns="http://www.w3.org/2000/svg" xmlns:cc="http://creativecommons.org/ns#" xmlns:xlink="http://www.w3.org/1999/xlink" xmlns:dc="http://purl.org/dc/elements/1.1/" xmlns:svg="http://www.w3.org/2000/svg" id="svg1" viewBox="0 0 48 48" version="1.1">
  <defs id="defs3">
    <linearGradient id="linearGradient3764">
      <stop id="stop3766" stop-color="#7ed249" offset="0"/>
      <stop id="stop3768" stop-color="#286325" offset="1"/>
    </linearGradient>
    <linearGradient id="linearGradient2870" x1="9.7427" xlink:href="#linearGradient3764" gradientUnits="userSpaceOnUse" x2="28" y1="21.116" y2="27.769"/>
    <linearGradient id="linearGradient2872" x1="8.2842" xlink:href="#linearGradient3764" gradientUnits="userSpaceOnUse" x2="22.379" y1="22.608" y2="36"/>
    <linearGradient id="linearGradient2874" x1="20.211" xlink:href="#linearGradient3764" gradientUnits="userSpaceOnUse" x2="37" y1="19.608" y2="29.667"/>
    <linearGradient id="linearGradient2911">
      <stop id="stop2913" stop-color="#9a5723" offset="0"/>
      <stop id="stop2915" stop-color="#db9762" offset="1"/>
    </linearGradient>
    <linearGradient id="linearGradient3032" x1="20" xlink:href="#linearGradient2911" gradientUnits="userSpaceOnUse" x2="28" y1="4.7825" y2="12.408"/>
    <radialGradient id="radialGradient3034" xlink:href="#linearGradient2911" gradientUnits="userSpaceOnUse" cy="8.8799" cx="16.589" gradientTransform="matrix(1.8855 .41055 -.13845 .63579 -13.461 .59603)" r="16"/>
    <linearGradient id="linearGradient3038" x1="10.611" xlink:href="#linearGradient2911" gradientUnits="userSpaceOnUse" x2="41.444" y1="16.084" y2="19.097"/>
    <linearGradient id="linearGradient3040" x1="34.008" xlink:href="#linearGradient2911" gradientUnits="userSpaceOnUse" x2="28.644" y1="13.107" y2=".47564"/>
    <linearGradient id="linearGradient3051" x1="39.967" xlink:href="#linearGradient3764" gradientUnits="userSpaceOnUse" x2="13.732" y1="13.133" y2="22.72"/>
    <linearGradient id="linearGradient3982" y2="15.487" gradientUnits="userSpaceOnUse" y1="12.842" x2="28" x1="20.062">
      <stop id="stop3803" stop-color="#a20000" offset="0"/>
      <stop id="stop3805" stop-color="#d40000" offset="1"/>
    </linearGradient>
    <linearGradient id="linearGradient3986" x1="20.844" xlink:href="#linearGradient3764" gradientUnits="userSpaceOnUse" y1="21.432" gradientTransform="translate(.58947)" x2="20.844" y2="23.789"/>
    <linearGradient id="linearGradient3992" x1="20.844" xlink:href="#linearGradient3764" gradientUnits="userSpaceOnUse" y1="21.432" gradientTransform="translate(-6.0632 2.4421)" x2="20.844" y2="23.789"/>
    <linearGradient id="linearGradient3996" x1="20.844" xlink:href="#linearGradient3764" gradientUnits="userSpaceOnUse" y1="21.432" gradientTransform="translate(-7.4947 7.9158)" x2="20.844" y2="23.789"/>
    <linearGradient id="linearGradient4000" x1="20.844" xlink:href="#linearGradient3764" gradientUnits="userSpaceOnUse" y1="21.432" gradientTransform="translate(-3.7895 11.284)" x2="20.844" y2="23.789"/>
    <linearGradient id="linearGradient4004" x1="20.844" xlink:href="#linearGradient3764" gradientUnits="userSpaceOnUse" y1="21.432" gradientTransform="translate(1.2632 6.3158)" x2="20.844" y2="23.789"/>
    <linearGradient id="linearGradient4008" x1="20.844" xlink:href="#linearGradient3764" gradientUnits="userSpaceOnUse" y1="21.432" gradientTransform="translate(1.3474 15.326)" x2="20.844" y2="23.789"/>
    <linearGradient id="linearGradient4010" x1="20.844" xlink:href="#linearGradient3764" gradientUnits="userSpaceOnUse" y1="21.432" gradientTransform="matrix(-.87204 .48943 .48943 .87204 37.049 -2.0874)" x2="20.844" y2="23.789"/>
    <linearGradient id="linearGradient4014" x1="20.844" xlink:href="#linearGradient3764" gradientUnits="userSpaceOnUse" y1="21.432" gradientTransform="matrix(-1 0 0 1 56.341 -1.5158)" x2="20.844" y2="23.789"/>
    <linearGradient id="linearGradient4018" x1="20.844" xlink:href="#linearGradient3764" gradientUnits="userSpaceOnUse" y1="21.432" gradientTransform="matrix(-1 0 0 1 56.088 3.7053)" x2="20.844" y2="23.789"/>
    <linearGradient id="linearGradient4022" x1="20.844" xlink:href="#linearGradient3764" gradientUnits="userSpaceOnUse" y1="21.432" gradientTransform="matrix(-1 0 0 1 58.193 6.7368)" x2="20.844" y2="23.789"/>
    <linearGradient id="linearGradient4026" x1="20.844" xlink:href="#linearGradient3764" gradientUnits="userSpaceOnUse" y1="21.432" gradientTransform="matrix(-1 0 0 1 48.256 12.126)" x2="20.844" y2="23.789"/>
    <linearGradient id="linearGradient4030" x1="20.844" xlink:href="#linearGradient3764" gradientUnits="userSpaceOnUse" y1="21.432" gradientTransform="matrix(-1 0 0 1 47.835 2.6947)" x2="20.844" y2="23.789"/>
    <linearGradient id="linearGradient4034" x1="20.844" xlink:href="#linearGradient3764" gradientUnits="userSpaceOnUse" y1="21.432" gradientTransform="matrix(-1 0 0 1 48.004 -1.7684)" x2="20.844" y2="23.789"/>
    <linearGradient id="linearGradient4038" x1="20.844" xlink:href="#linearGradient3764" gradientUnits="userSpaceOnUse" y1="21.432" gradientTransform="matrix(.87204 .48943 -.48943 .87204 12.234 -.48742)" x2="20.844" y2="23.789"/>
    <filter id="filter4070" y="-.13514" width="1.3134" x="-.1567" height="1.2703">
      <feGaussianBlur id="feGaussianBlur4072" stdDeviation="0.18497629"/>
    </filter>
    <filter id="filter4074" y="-.14911" width="1.3868" x="-.19342" height="1.2982">
      <feGaussianBlur id="feGaussianBlur4076" stdDeviation="0.18497629"/>
    </filter>
    <filter id="filter4086" y="-.16079" width="1.4788" x="-.23939" height="1.3216">
      <feGaussianBlur id="feGaussianBlur4088" stdDeviation="0.26727961"/>
    </filter>
    <filter id="filter4090" y="-.171" width="1.1857" x="-.092868" height="1.342">
      <feGaussianBlur id="feGaussianBlur4092" stdDeviation="0.26727961"/>
    </filter>
    <filter id="filter3663" y="-.37895" width="1.2302" x="-.1151" height="1.7579">
      <feGaussianBlur id="feGaussianBlur3665" stdDeviation="0.86426351"/>
    </filter>
  </defs>
  <path id="path4040" d="m35.368 42.232a9.0105 2.7368 0 1 1 -18.021 0 9.0105 2.7368 0 1 1 18.021 0z" fill-opacity=".76863" fill-rule="evenodd" transform="matrix(.52804 0 0 .63077 11.05 15.593)" filter="url(#filter3663)"/>
  <path id="path2855" style="color:#000000" fill="url(#linearGradient2874)" d="m25 28h5s2 0 2-1-2-6 0-7 4 0 4 2 1 6 1 8-2.7639 3-5 3c-3 0-8 1-8 1l1-6z"/>
  <path id="path2857" style="color:#000000" fill="url(#linearGradient2872)" d="m25 30h-5s-2 0-2-1 2-5 0-6-4 0-4 2-1 5-1 7 2.7639 3 5 3c3 0 8 1 8 1l-1-6z"/>
  <path id="path2868" fill-rule="evenodd" fill="url(#linearGradient3040)" d="m41 16.442c0 2.2091-11 1-17 1s-15 1.2091-15-1c0-0.6881-0.76342-2.1673 0-3 1-2 6.7377-5 15-5 7.1022 0 17 3 17 6-0.37216 0.14887-0.13104 1.4524 0 2z"/>
  <path id="path2853" style="color:#000000" fill="url(#linearGradient2870)" d="m21.074 42.168c1.1 0.642 0.503-28.248 0.926-29.168 0.83644-1.8167 4.4979 0.03163 5 4 0.4817 3.8073 2.4786 24.914 1.8421 25.168-0.97218 1.2521-5.8293 2.2688-7.7684 0z"/>
  <path id="path2859" fill-rule="evenodd" fill="url(#radialGradient3034)" d="m41 16.442c0 2.2091-11 2-17 2s-15 0.20914-15-2 3-6 15-6c10 0 17 3.7909 17 6z"/>
  <path id="path2862" style="color:#000000" fill="url(#linearGradient3032)" d="m20 13.442s0-6 2-8 5 1 5 3 1 6 1 6-1.7474 2.9158-8-1z"/>
  <path id="path2864" fill-rule="evenodd" fill="url(#linearGradient3038)" d="m40.94 16.799c0 2.21-10.94 2.298-16.94 2.298s-15-0.446-15-2.655c0-0.688-0.823-1.81-0.0595-2.643 0.2854 2.072 6.7975 2.643 15.06 2.643 7.1022 0 15.536 0.67956 17-2 0 0 0.46409 0.345-0.05955 2.3573z"/>
  <path id="path3042" style="block-progression:tb;color:#000000;text-transform:none;text-indent:0" fill="url(#linearGradient3051)" d="m41 14.438c-0.13426 0.24572-0.18025 0.33759-0.42533 0.52993l-0.7 2.157-1-1.3125c-0.32401 0.09887-0.65409 0.20788-1.0312 0.28125l-1.032 2.188-1.406-1.906c-0.39211 0.02933-0.77124 0.07591-1.1875 0.09375l-1.5938 2.125c-0.38238-0.56682-0.87038-1.5435-1.3125-2.0625-0.5026 0.000067-1.0168-0.02585-1.5312-0.03125-0.04007 0.04449-0.0847 0.07278-0.125 0.125-0.43769 0.55441-0.67968 1.533-1.0625 2.125l-1.625-2.2812c-0.54628-0.0082-1.0844-0.02613-1.625-0.03125l-2.1562 2.375-1.5-2.4062c-0.34611-0.0052-0.69393 0.0078-1.0312 0-0.74324 0.67248-1.4911 1.6409-2.25 2.2188-0.262-0.27236-0.51177-1.0826-0.75-1.375-0.38796-0.50552-0.61956-0.84614-0.75-1.0312-0.40928-0.02743-0.83389-0.02846-1.2188-0.0625-0.01099-0.000972-0.02028 0.000977-0.03125 0-0.70591 0.61638-1.411 1.4173-2.0938 1.9688-0.66196-0.69132-1.2158-1.7238-1.7812-2.5625-0.41824-0.10036-0.7919-0.19071-1.125-0.3125l-1.5935 1.468c0.079567 0.22239 0.26927 0.40941 0.53125 0.59375l1.4375-1.4688c0.43296 0.95179 1.0941 1.7304 1.7812 2.5 0.44417 0.08025 0.88288 0.18552 1.375 0.25 0.01218-0.01756-0.0037 0.0033 0.03125-0.03125 0.06979-0.06911 0.15975-0.14585 0.28125-0.25 0.54339-0.48539 1.228-1.3795 1.8125-1.8125 0.41022 0.63082 0.80502 1.6702 1.2812 2.25 0.05878 0.06514 0.12638 0.10276 0.1875 0.15625 0.37713 0.0234 0.7449 0.0756 1.125 0.09375 0.76671-0.65448 1.5075-1.656 2.25-2.25l1.5 2.3125c0.41877 0.0046 0.85327 0.03096 1.25 0.03125l2.375-2.3125 1.5312 2.2812c0.48235-0.0067 0.87951 0.01135 1.375 0 0.4451-0.77779 0.94738-1.7961 1.375-2.4375 0.38045 0.80452 0.86534 1.571 1.4062 2.3125 0.0035 0.0049 0.02771-0.0048 0.03125 0 0.41855-0.01973 0.80936-0.03708 1.2188-0.0625l1.6562-2.1875 1.4062 1.9062c0.36805-0.04534 0.75712-0.07086 1.0938-0.125l1.0938-2.0938 1.2812 1.5c0.40574-0.15686 0.70438-0.33128 0.90625-0.53125l0.47-1.437c0.181-1.206-0.125-1.468-0.125-1.468z"/>
  <path id="path3055" style="block-progression:tb;color:#000000;text-transform:none;text-indent:0" fill="url(#linearGradient3982)" d="m20.543 10.198-0.231 0.152c-0.14022 0.88046-0.20998 1.1928-0.25 1.8376l0.15625 1.375c0.38173 0.23311 0.74588 0.44138 1.0938 0.625l0.59375-1.4688 0.3125 1.9062c0.40069 0.17947 0.77376 0.35266 1.125 0.46875l0.8125-2.25 0.65625 2.5938c0.42398 0.05513 0.79746 0.06137 1.125 0.03125l0.46875-2.9375 1.4688 2 0.03125 0.03125c0.06-0.073 0.094-0.125 0.094-0.125s-0.21432-0.95539-0.4375-2.0312l-1.062-1.407-0.875 0.21875-0.34375 2.0625-0.5625-2.25-0.9375-0.0625-0.78125 2.125-0.375-2.2812-0.96875-0.09375-0.59375 1.4375-0.21875-1.875-0.30068-0.08318z"/>
  <path id="path3984" style="color:#000000" fill="url(#linearGradient3986)" d="m20.211 21.432 1.7684 2.3579c0.89002-0.15713 0.72118-0.75142 0.50526-1.3053l-2.2737-1.0526z"/>
  <path id="path4058" style="color:#000000" d="m16.971 22.872c-1.977 0.83538-2.0854 2.086-2.7391 3.2155-0.41813-0.29866 0.57065-3.8202 2.7391-3.2155z" fill-opacity=".69643" filter="url(#filter4070)" fill="#fff"/>
  <path id="path3990" style="color:#000000" fill="url(#linearGradient3992)" d="m13.558 23.874 1.7684 2.3579c0.89002-0.15713 0.72118-0.75142 0.50526-1.3053l-2.2737-1.0526z"/>
  <path id="path3994" style="color:#000000" fill="url(#linearGradient3996)" d="m12.126 29.347 1.7684 2.3579c0.891-0.157 0.722-0.751 0.506-1.305l-2.2737-1.0526z"/>
  <path id="path3998" style="color:#000000" fill="url(#linearGradient4000)" d="m15.832 32.716 1.768 2.358c0.89002-0.15713 0.72118-0.75142 0.50526-1.3053l-2.273-1.053z"/>
  <path id="path4002" style="color:#000000" fill="url(#linearGradient4004)" d="m20.884 27.747 1.7684 2.3579c0.89002-0.15713 0.72118-0.75142 0.50526-1.3053l-2.2737-1.0526z"/>
  <path id="path4006" style="color:#000000" fill="url(#linearGradient4008)" d="m20.968 36.758 1.7684 2.3579c0.89002-0.15713 0.72118-0.75142 0.50526-1.3053l-2.2737-1.0526z"/>
  <path id="path4012" style="color:#000000" fill="url(#linearGradient4014)" d="m36.72 19.916-1.7684 2.3579c-0.891-0.157-0.722-0.752-0.506-1.306l2.2737-1.0526z"/>
  <path id="path4016" style="color:#000000" fill="url(#linearGradient4018)" d="m36.467 25.137-1.7684 2.3579c-0.89002-0.15713-0.72118-0.75142-0.50526-1.3053l2.2737-1.0526z"/>
  <path id="path4020" style="color:#000000" fill="url(#linearGradient4022)" d="m38.572 28.168-1.7684 2.3579c-0.89002-0.15713-0.72118-0.75142-0.50526-1.3053l2.2737-1.0526z"/>
  <path id="path4024" style="color:#000000" fill="url(#linearGradient4026)" d="m28.635 33.558-1.7684 2.3579c-0.89002-0.15713-0.72118-0.75142-0.50526-1.3053l2.2737-1.0526z"/>
  <path id="path4028" style="color:#000000" fill="url(#linearGradient4030)" d="m28.214 24.126-1.7684 2.3579c-0.89-0.157-0.721-0.751-0.505-1.305l2.2737-1.0526z"/>
  <path id="path4032" style="color:#000000" fill="url(#linearGradient4034)" d="m28.383 19.663-1.7684 2.3579c-0.891-0.157-0.722-0.751-0.506-1.305l2.2737-1.0526z"/>
  <path id="path3988" style="color:#000000" fill="url(#linearGradient4010)" d="m30.428 26.205-0.38812 2.9217c-0.85304 0.29858-0.99667-0.3023-1.0794-0.89096l1.4676-2.0307z"/>
  <path id="path4036" style="color:#000000" fill="url(#linearGradient4038)" d="m18.855 27.805 0.38812 2.9217c0.85304 0.29858 0.99667-0.3023 1.0794-0.89096l-1.4676-2.0307z"/>
  <path id="path4054" style="color:#000000" d="m20.901 9.057c0.74113-1.2864 0.92918-2.4148 2.6796-3.9896-0.90367 0-2.525 0.83364-2.6796 3.9896z" fill-opacity=".78125" filter="url(#filter4086)" fill="#fff"/>
  <path id="path4056" style="color:#000000" d="m10.242 15.25c1.3723-1.3667 3.0306-2.6977 6.9073-3.7514 0 0-6.55 0.7741-6.9073 3.7514z" fill-opacity=".78125" filter="url(#filter4090)" fill="#fff"/>
  <path id="path4060" style="color:#000000" d="m33.584 19.954c-1.9536 0.5728-1.9831 1.787-2.0841 2.9773 0 0-1.1909-2.9773 2.0841-2.9773z" fill-opacity=".69643" filter="url(#filter4074)" fill="#fff"/>
  <metadata>
    <rdf:RDF>
      <cc:Work>
        <dc:format>image/svg+xml</dc:format>
        <dc:type rdf:resource="http://purl.org/dc/dcmitype/StillImage"/>
        <cc:license rdf:resource="http://creativecommons.org/licenses/publicdomain/"/>
        <dc:publisher>
          <cc:Agent rdf:about="http://openclipart.org/">
            <dc:title>Openclipart</dc:title>
          </cc:Agent>
        </dc:publisher>
        <dc:title>Cinco de Mayo Icon</dc:title>
        <dc:date>2010-11-05T11:21:32</dc:date>
        <dc:description>Cinco de Mayo - cactus\n\nPart of the "Events" set made for WorldLabel.com</dc:description>
        <dc:source>http://openclipart.org/detail/93955/cinco-de-mayo-icon-by-nicubunu</dc:source>
        <dc:creator>
          <cc:Agent>
            <dc:title>nicubunu</dc:title>
          </cc:Agent>
        </dc:creator>
        <dc:subject>
          <rdf:Bag>
            <rdf:li>Cinco de Mayo</rdf:li>
            <rdf:li>Mexico</rdf:li>
            <rdf:li>cactus</rdf:li>
            <rdf:li>clip art</rdf:li>
            <rdf:li>clipart</rdf:li>
            <rdf:li>color</rdf:li>
            <rdf:li>event</rdf:li>
            <rdf:li>events</rdf:li>
            <rdf:li>hat</rdf:li>
            <rdf:li>holiday</rdf:li>
            <rdf:li>holidays</rdf:li>
            <rdf:li>icon</rdf:li>
            <rdf:li>occasion</rdf:li>
            <rdf:li>occasions</rdf:li>
            <rdf:li>worldlabel</rdf:li>
          </rdf:Bag>
        </dc:subject>
      </cc:Work>
      <cc:License rdf:about="http://creativecommons.org/licenses/publicdomain/">
        <cc:permits rdf:resource="http://creativecommons.org/ns#Reproduction"/>
        <cc:permits rdf:resource="http://creativecommons.org/ns#Distribution"/>
        <cc:permits rdf:resource="http://creativecommons.org/ns#DerivativeWorks"/>
      </cc:License>
    </rdf:RDF>
  </metadata>
</svg>
