<?xml version="1.0" encoding="utf-8"?>
<svg version="1.1" id="Layer_1" xmlns="http://www.w3.org/2000/svg" xmlns:xlink="http://www.w3.org/1999/xlink" x="0px" y="0px"
	 viewBox="0 0 1754.365 1667.018" enable-background="new 0 0 1754.365 1667.018" xml:space="preserve">
<g>
	
		<radialGradient id="SVGID_1_" cx="898.131" cy="782.5704" r="794.2279" gradientTransform="matrix(0.9787 0 0 1.0709 -32.1114 46.6585)" gradientUnits="userSpaceOnUse">
		<stop  offset="0" style="stop-color:#FB0147"/>
		<stop  offset="1" style="stop-color:#BD0D36"/>
	</radialGradient>
	<path fill="url(#SVGID_1_)" d="M1327.253,203.795c40.133,48.275,73.842,102.771,101.828,160.378
		c38.103,87.218,63.061,176.052,76.427,271.753c6.904,49.285-9.304,105.841-31.678,148.541
		c-19.494,53.163-45.967,103.134-74.47,151.127c-78.31,131.736-175.227,250.989-267.899,370.727
		c-32.601,42.134-67.233,81.441-101.274,122.162c-15.027,17.977-31.42,34.499-48.514,50.093c-6.203,5.736-14.473,7.029-22.079,8.847
		c-39.469,8.847-78.863,16.725-119.107,19.916c-20.196,1.616-49.807,8.12-68.23-3.717c-9.12-5.858-16.319-14.583-23.371-23.148
		c-73.99-90.207-143.955-183.97-215.324-276.48c-34.927-46.497-68.858-93.843-101.164-142.562
		c-80.968-121.96-164.483-259.028-196.383-407.69c-23.703-110.487-39.062-235.113,9.858-340.631
		c14.768-42.821,43.087-80.189,79.27-103.256c28.946-15.189,55.898-23.35,88.204-24.562
		c132.399-5.13,256.749,90.773,351.341,182.677c11.815,11.473,24.626,21.895,34.337,35.671
		c26.694,21.936,49.031,49.689,75.061,72.634c-3.914,15.715-14.141,27.955-21.34,41.811c-26.251,48.679-50.803,99.62-63.541,154.601
		c36.958-78.936,83.7-152.217,137.309-218.671c3.914-4.726,8.16-9.089,12.369-13.452c10.744-16.927,25.771-29.813,38.619-44.68
		c21.783-22.663,44.047-45.245,68.784-63.989c11.962-13.452,26.842-23.107,40.539-34.176c16.947-12.321,33.524-25.491,51.948-35.025
		c17.501-16.199,39.653-25.046,60.772-34.055c22.485-12.281,45.745-24.238,70.962-27.511
		C1289.15,198.14,1309.9,192.928,1327.253,203.795z"/>
	<g>
		<path fill="#FFFFFF" d="M144.486,473.569c-9.821,152.621,24.553,307.828,95.219,439.725c6.498,12.806,16.578,24.723,17.168,40.115
			c-13.365-4.04-20.27-17.815-28.245-28.925c-68.156-94.651-111.649-210.309-124.609-329.885
			c-14.584-142.199,15.655-294.941,102.161-405.105c7.347-7.272,15.359-20.966,26.694-16.926
			c-4.763,16.038-13.698,29.773-21.377,44.154C172.842,295.901,150.394,384.089,144.486,473.569z"/>
		<path fill="#FFFFFF" d="M1362.992,1153.174c-9.489,24.238-26.066,44.114-41.019,64.474
			c-92.783,113.113-189.294,224.407-302.753,313.039c-27.432,21.128-53.905,44.397-84.512,59.869
			c-7.753,3.555-15.765,8.524-24.479,6.342c3.987-6.706,8.713-12.846,14.436-17.775c62.95-55.183,127.562-108.265,186.931-168.134
			c52.502-53.971,102.419-110.891,153.555-166.397c27.839-29.732,53.351-62.374,84.808-87.743
			C1353.614,1153.375,1358.229,1152.042,1362.992,1153.174z"/>
		<path fill="#FFFFFF" d="M1609.81,496.878c-3.249-99.903-26.509-199.482-71.221-286.902c-4.283-8.847-10.338-17.734-8.64-28.319
			c18.424,10.221,30.497,29.53,43.234,46.659c55.825,82.815,78.088,187.363,79.528,288.922c2.88,155.207-54.458,306.333-141.26,427
			c-6.609,7.716-13.107,19.068-24.183,17.815c2.695-8.362,6.203-16.361,10.522-23.794
			C1575.362,808.342,1614.277,651.802,1609.81,496.878z"/>
		<path fill="#A61230" d="M144.486,473.569c5.907-89.48,28.355-177.668,67.012-256.846c7.68-14.381,16.614-28.117,21.377-44.154
			c-11.335-4.04-19.347,9.655-26.694,16.926C119.675,299.658,89.437,452.401,104.021,594.599
			c12.959,119.576,56.452,235.234,124.609,329.885c7.975,11.109,14.879,24.885,28.245,28.925
			c-0.591-15.391-10.67-27.309-17.168-40.115C169.039,781.397,134.665,626.19,144.486,473.569z M1321.973,1217.648
			c14.953-20.36,31.531-40.236,41.019-64.474c-4.763-1.131-9.378,0.202-13.033,3.676c-31.457,25.37-56.969,58.011-84.808,87.743
			c-51.136,55.506-101.053,112.426-153.555,166.397c-59.369,59.869-123.981,112.951-186.931,168.134
			c-5.723,4.928-10.449,11.069-14.436,17.775c8.713,2.181,16.725-2.787,24.479-6.342c30.608-15.472,57.08-38.741,84.512-59.869
			C1132.679,1442.055,1229.19,1330.76,1321.973,1217.648z M1473.829,784.467c22.374-42.7,38.583-99.256,31.678-148.541
			c-13.365-95.701-38.324-184.535-76.427-271.753c-27.986-57.607-61.695-112.103-101.828-160.378
			c-17.353-10.867-38.103-5.656-56.748-2.666c-25.217,3.272-48.477,15.23-70.962,27.511c-21.119,9.009-43.271,17.856-60.772,34.055
			c-18.424,9.534-35.001,22.703-51.948,35.025c-13.698,11.069-28.577,20.724-40.539,34.176c-24.737,18.744-47,41.327-68.784,63.989
			c-12.849,14.866-27.875,27.753-38.619,44.68c-4.209,4.363-8.455,8.726-12.369,13.452
			C872.902,520.47,826.16,593.751,789.202,672.687c12.738-54.981,37.29-105.922,63.541-154.601
			c7.2-13.856,17.427-26.097,21.34-41.811c-26.029-22.946-48.367-50.699-75.061-72.634c-9.71-13.776-22.522-24.198-34.337-35.671
			c-94.592-91.904-218.942-187.807-351.341-182.677c-32.306,1.212-59.258,9.372-88.204,24.562
			c-36.183,23.067-64.501,60.434-79.27,103.256c-48.92,105.518-33.561,230.144-9.858,340.631
			c31.9,148.662,115.415,285.731,196.383,407.69c32.306,48.719,66.236,96.065,101.164,142.562
			c71.368,92.51,141.334,186.272,215.324,276.48c7.052,8.564,14.252,17.29,23.371,23.148c18.424,11.836,48.034,5.333,68.23,3.717
			c40.244-3.191,79.639-11.069,119.107-19.916c7.606-1.818,15.876-3.111,22.079-8.847c17.094-15.593,33.487-32.116,48.514-50.093
			c34.041-40.721,68.673-80.027,101.274-122.162c92.672-119.738,189.59-238.991,267.899-370.727
			C1427.863,887.601,1454.335,837.63,1473.829,784.467z M1621.255,866.393c-80.303,156.257-189.294,291.992-303.085,419.931
			c-128.411,141.35-274.693,268.158-444.087,345.034c-8.676,5.656-17.648-1.252-25.808-4.565
			c-135.02-66.211-255.014-164.458-361.568-275.833c-66.421-69.079-127.858-143.613-186.599-220.489
			C219.99,1024.67,146.185,911.315,95.64,784.952c-39.506-99.62-64.058-207.925-59.923-317.079
			c3.729-105.881,29.205-214.066,88.537-299.466c43.862-63.747,108.4-110.81,180.101-127.09
			c79.417-18.664,162.527-2.141,236.738,31.227c96.29,45.083,181.209,117.839,246.485,207.238
			c41.241,57.081,72.993,122.808,89.201,193.584c10.227-9.009,15.728-22.542,23.925-33.489
			c53.425-82.653,118.701-155.53,189.516-220.448c61.104-55.344,128.522-103.538,202.623-135.372
			c67.418-28.884,144.841-42.054,214.364-13.775c61.732,23.511,110.32,76.715,143.18,137.23
			c39.764,74.291,61.547,159.246,67.27,244.808C1727.662,597.387,1684.612,740.716,1621.255,866.393z M1573.184,228.316
			c-12.738-17.128-24.811-36.438-43.234-46.659c-1.698,10.584,4.357,19.472,8.64,28.319c44.711,87.42,67.972,186.999,71.221,286.902
			c4.467,154.924-34.447,311.464-112.019,441.382c-4.32,7.433-7.827,15.432-10.522,23.794c11.076,1.252,17.574-10.099,24.183-17.815
			c86.802-120.667,144.14-271.793,141.26-427C1651.272,415.679,1629.009,311.131,1573.184,228.316z"/>
	</g>
</g>
</svg>
